<svg xmlns="http://www.w3.org/2000/svg" xmlns:xlink="http://www.w3.org/1999/xlink" width="500" zoomAndPan="magnify" viewBox="0 0 375 374.999991" height="500" preserveAspectRatio="xMidYMid meet" version="1.0"><defs><g/><clipPath id="8f40016a8a"><path d="M 232.160156 137.414062 L 243.410156 137.414062 L 243.410156 148.664062 L 232.160156 148.664062 Z M 232.160156 137.414062 " clip-rule="nonzero"/></clipPath><clipPath id="3744078d16"><path d="M 115.046875 120 L 131.546875 120 L 131.546875 251 L 115.046875 251 Z M 115.046875 120 " clip-rule="nonzero"/></clipPath><clipPath id="117c1fc6f8"><path d="M 242.96875 119.273438 L 259.46875 119.273438 L 259.46875 251 L 242.96875 251 Z M 242.96875 119.273438 " clip-rule="nonzero"/></clipPath></defs><rect x="-37.5" width="450" fill="#ffffff" y="-37.499999" height="449.999989" fill-opacity="1"/><rect x="-37.5" width="450" fill="#ffffff" y="-37.499999" height="449.999989" fill-opacity="1"/><rect x="-37.5" width="450" fill="#ffffff" y="-37.499999" height="449.999989" fill-opacity="1"/><g clip-path="url(#8f40016a8a)"><path fill="#ff0000" d="M 237.785156 137.414062 C 234.679688 137.414062 232.160156 139.929688 232.160156 143.039062 C 232.160156 146.144531 234.679688 148.664062 237.785156 148.664062 C 240.890625 148.664062 243.410156 146.144531 243.410156 143.039062 C 243.410156 139.929688 240.890625 137.414062 237.785156 137.414062 " fill-opacity="1" fill-rule="nonzero"/></g><g clip-path="url(#3744078d16)"><path fill="#000000" d="M 129.480469 250.90625 L 117.109375 250.90625 C 115.96875 250.90625 115.046875 250.003906 115.046875 248.886719 L 115.046875 122.121094 C 115.046875 121.003906 115.96875 120.101562 117.109375 120.101562 L 129.480469 120.101562 C 130.617188 120.101562 131.542969 121.003906 131.542969 122.121094 C 131.542969 123.234375 130.617188 124.140625 129.480469 124.140625 L 119.171875 124.140625 L 119.171875 246.867188 L 129.480469 246.867188 C 130.617188 246.867188 131.542969 247.769531 131.542969 248.886719 C 131.542969 250.003906 130.617188 250.90625 129.480469 250.90625 " fill-opacity="1" fill-rule="nonzero"/></g><g fill="#000000" fill-opacity="1"><g transform="translate(131.189235, 202.902263)"><g><path d="M 15.71875 0 L 12.28125 0 L 12.28125 -9.5 C 12.28125 -9.875 12.179688 -10.15625 11.984375 -10.34375 C 11.796875 -10.539062 11.546875 -10.640625 11.234375 -10.640625 C 10.867188 -10.640625 10.582031 -10.53125 10.375 -10.3125 C 10.164062 -10.09375 10.0625 -9.765625 10.0625 -9.328125 L 10.0625 0 L 6.625 0 L 6.625 -9.5 C 6.625 -9.875 6.519531 -10.15625 6.3125 -10.34375 C 6.101562 -10.539062 5.851562 -10.640625 5.5625 -10.640625 C 5.238281 -10.640625 4.96875 -10.53125 4.75 -10.3125 C 4.53125 -10.09375 4.421875 -9.765625 4.421875 -9.328125 L 4.421875 0 L 0.984375 0 L 0.984375 -13.53125 L 4.421875 -13.53125 L 4.421875 -12.21875 L 4.90625 -12.21875 C 5.019531 -12.707031 5.269531 -13.109375 5.65625 -13.421875 C 6.050781 -13.742188 6.566406 -13.90625 7.203125 -13.90625 C 7.804688 -13.90625 8.316406 -13.742188 8.734375 -13.421875 C 9.148438 -13.109375 9.429688 -12.707031 9.578125 -12.21875 L 10.0625 -12.21875 C 10.207031 -12.707031 10.507812 -13.109375 10.96875 -13.421875 C 11.4375 -13.742188 12.019531 -13.90625 12.71875 -13.90625 C 13.625 -13.90625 14.347656 -13.597656 14.890625 -12.984375 C 15.441406 -12.378906 15.71875 -11.539062 15.71875 -10.46875 Z M 15.71875 0 "/></g></g></g><g fill="#000000" fill-opacity="1"><g transform="translate(147.878153, 202.902263)"><g><path d="M 15.390625 -6.609375 C 15.390625 -5.472656 15.195312 -4.472656 14.8125 -3.609375 C 14.425781 -2.742188 13.90625 -2.015625 13.25 -1.421875 C 12.601562 -0.835938 11.851562 -0.390625 11 -0.078125 C 10.15625 0.222656 9.269531 0.375 8.34375 0.375 C 7.414062 0.375 6.53125 0.222656 5.6875 -0.078125 C 4.84375 -0.390625 4.09375 -0.835938 3.4375 -1.421875 C 2.78125 -2.015625 2.257812 -2.742188 1.875 -3.609375 C 1.5 -4.472656 1.3125 -5.472656 1.3125 -6.609375 L 1.3125 -6.921875 C 1.3125 -8.035156 1.5 -9.023438 1.875 -9.890625 C 2.257812 -10.753906 2.78125 -11.484375 3.4375 -12.078125 C 4.09375 -12.679688 4.84375 -13.132812 5.6875 -13.4375 C 6.53125 -13.75 7.414062 -13.90625 8.34375 -13.90625 C 9.269531 -13.90625 10.15625 -13.75 11 -13.4375 C 11.851562 -13.132812 12.601562 -12.679688 13.25 -12.078125 C 13.90625 -11.484375 14.425781 -10.753906 14.8125 -9.890625 C 15.195312 -9.023438 15.390625 -8.035156 15.390625 -6.921875 Z M 8.34375 -2.890625 C 8.832031 -2.890625 9.296875 -2.972656 9.734375 -3.140625 C 10.171875 -3.304688 10.550781 -3.539062 10.875 -3.84375 C 11.207031 -4.15625 11.46875 -4.53125 11.65625 -4.96875 C 11.851562 -5.414062 11.953125 -5.925781 11.953125 -6.5 L 11.953125 -7.03125 C 11.953125 -7.601562 11.851562 -8.109375 11.65625 -8.546875 C 11.46875 -8.992188 11.207031 -9.375 10.875 -9.6875 C 10.550781 -10 10.171875 -10.234375 9.734375 -10.390625 C 9.296875 -10.554688 8.832031 -10.640625 8.34375 -10.640625 C 7.851562 -10.640625 7.390625 -10.554688 6.953125 -10.390625 C 6.515625 -10.234375 6.128906 -10 5.796875 -9.6875 C 5.472656 -9.375 5.21875 -8.992188 5.03125 -8.546875 C 4.84375 -8.109375 4.75 -7.601562 4.75 -7.03125 L 4.75 -6.5 C 4.75 -5.925781 4.84375 -5.414062 5.03125 -4.96875 C 5.21875 -4.53125 5.472656 -4.15625 5.796875 -3.84375 C 6.128906 -3.539062 6.515625 -3.304688 6.953125 -3.140625 C 7.390625 -2.972656 7.851562 -2.890625 8.34375 -2.890625 Z M 8.34375 -2.890625 "/></g></g></g><g fill="#000000" fill-opacity="1"><g transform="translate(164.567071, 202.902263)"><g><path d="M 1.171875 -13.53125 L 4.890625 -13.53125 L 8.078125 -1.640625 L 8.5625 -1.640625 L 11.765625 -13.53125 L 15.46875 -13.53125 L 11.59375 0 L 5.046875 0 Z M 1.171875 -13.53125 "/></g></g></g><g fill="#000000" fill-opacity="1"><g transform="translate(181.255989, 202.902263)"><g><path d="M 2.375 -3.28125 L 6.953125 -3.28125 L 6.953125 -10.25 L 2.703125 -10.25 L 2.703125 -13.53125 L 10.390625 -13.53125 L 10.390625 -3.28125 L 14.328125 -3.28125 L 14.328125 0 L 2.375 0 Z M 11.234375 -17.546875 C 11.234375 -17.179688 11.164062 -16.835938 11.03125 -16.515625 C 10.894531 -16.203125 10.707031 -15.929688 10.46875 -15.703125 C 10.238281 -15.472656 9.960938 -15.289062 9.640625 -15.15625 C 9.328125 -15.019531 8.992188 -14.953125 8.640625 -14.953125 C 8.285156 -14.953125 7.953125 -15.019531 7.640625 -15.15625 C 7.328125 -15.289062 7.050781 -15.472656 6.8125 -15.703125 C 6.582031 -15.929688 6.398438 -16.203125 6.265625 -16.515625 C 6.128906 -16.835938 6.0625 -17.179688 6.0625 -17.546875 C 6.0625 -17.910156 6.128906 -18.25 6.265625 -18.5625 C 6.398438 -18.882812 6.582031 -19.15625 6.8125 -19.375 C 7.050781 -19.601562 7.328125 -19.785156 7.640625 -19.921875 C 7.953125 -20.066406 8.285156 -20.140625 8.640625 -20.140625 C 8.992188 -20.140625 9.328125 -20.066406 9.640625 -19.921875 C 9.960938 -19.785156 10.238281 -19.601562 10.46875 -19.375 C 10.707031 -19.15625 10.894531 -18.882812 11.03125 -18.5625 C 11.164062 -18.25 11.234375 -17.910156 11.234375 -17.546875 Z M 11.234375 -17.546875 "/></g></g></g><g fill="#000000" fill-opacity="1"><g transform="translate(197.944907, 202.902263)"><g><path d="M 5.15625 -5.640625 C 5.175781 -5.242188 5.269531 -4.875 5.4375 -4.53125 C 5.613281 -4.195312 5.851562 -3.90625 6.15625 -3.65625 C 6.457031 -3.414062 6.800781 -3.226562 7.1875 -3.09375 C 7.582031 -2.957031 8 -2.890625 8.4375 -2.890625 C 9.289062 -2.890625 9.941406 -3.039062 10.390625 -3.34375 C 10.847656 -3.644531 11.175781 -4.003906 11.375 -4.421875 L 14.328125 -2.78125 C 14.160156 -2.4375 13.929688 -2.078125 13.640625 -1.703125 C 13.347656 -1.328125 12.96875 -0.984375 12.5 -0.671875 C 12.039062 -0.367188 11.476562 -0.117188 10.8125 0.078125 C 10.15625 0.273438 9.378906 0.375 8.484375 0.375 C 7.460938 0.375 6.535156 0.210938 5.703125 -0.109375 C 4.867188 -0.429688 4.144531 -0.898438 3.53125 -1.515625 C 2.925781 -2.140625 2.453125 -2.894531 2.109375 -3.78125 C 1.773438 -4.675781 1.609375 -5.691406 1.609375 -6.828125 L 1.609375 -6.984375 C 1.609375 -8.015625 1.785156 -8.957031 2.140625 -9.8125 C 2.492188 -10.675781 2.976562 -11.40625 3.59375 -12 C 4.21875 -12.601562 4.941406 -13.070312 5.765625 -13.40625 C 6.597656 -13.738281 7.488281 -13.90625 8.4375 -13.90625 C 9.59375 -13.90625 10.585938 -13.703125 11.421875 -13.296875 C 12.265625 -12.890625 12.957031 -12.367188 13.5 -11.734375 C 14.050781 -11.109375 14.453125 -10.414062 14.703125 -9.65625 C 14.960938 -8.90625 15.09375 -8.175781 15.09375 -7.46875 L 15.09375 -5.640625 Z M 8.40625 -10.796875 C 7.53125 -10.796875 6.816406 -10.570312 6.265625 -10.125 C 5.722656 -9.6875 5.367188 -9.175781 5.203125 -8.59375 L 11.59375 -8.59375 C 11.488281 -9.226562 11.148438 -9.753906 10.578125 -10.171875 C 10.003906 -10.585938 9.28125 -10.796875 8.40625 -10.796875 Z M 8.40625 -10.796875 "/></g></g></g><g fill="#000000" fill-opacity="1"><g transform="translate(131.189235, 232.902261)"><g><path d="M 5 0 L 1.5625 0 L 1.5625 -19.09375 L 5 -19.09375 L 5 -11.5625 L 5.484375 -11.5625 C 5.847656 -12.3125 6.375 -12.890625 7.0625 -13.296875 C 7.757812 -13.703125 8.644531 -13.90625 9.71875 -13.90625 C 10.507812 -13.90625 11.265625 -13.75 11.984375 -13.4375 C 12.703125 -13.132812 13.328125 -12.6875 13.859375 -12.09375 C 14.398438 -11.507812 14.828125 -10.785156 15.140625 -9.921875 C 15.460938 -9.066406 15.625 -8.097656 15.625 -7.015625 L 15.625 -6.515625 C 15.625 -5.410156 15.46875 -4.429688 15.15625 -3.578125 C 14.851562 -2.722656 14.4375 -2 13.90625 -1.40625 C 13.382812 -0.8125 12.765625 -0.363281 12.046875 -0.0625 C 11.328125 0.226562 10.550781 0.375 9.71875 0.375 C 9.09375 0.375 8.550781 0.3125 8.09375 0.1875 C 7.644531 0.0625 7.25 -0.109375 6.90625 -0.328125 C 6.570312 -0.546875 6.289062 -0.796875 6.0625 -1.078125 C 5.84375 -1.359375 5.648438 -1.65625 5.484375 -1.96875 L 5 -1.96875 Z M 8.59375 -2.890625 C 9.664062 -2.890625 10.53125 -3.222656 11.1875 -3.890625 C 11.851562 -4.554688 12.1875 -5.460938 12.1875 -6.609375 L 12.1875 -6.921875 C 12.1875 -8.066406 11.851562 -8.972656 11.1875 -9.640625 C 10.53125 -10.304688 9.664062 -10.640625 8.59375 -10.640625 C 7.519531 -10.640625 6.648438 -10.296875 5.984375 -9.609375 C 5.328125 -8.929688 5 -8.035156 5 -6.921875 L 5 -6.609375 C 5 -5.492188 5.328125 -4.59375 5.984375 -3.90625 C 6.648438 -3.226562 7.519531 -2.890625 8.59375 -2.890625 Z M 8.59375 -2.890625 "/></g></g></g><g fill="#000000" fill-opacity="1"><g transform="translate(147.878153, 232.902261)"><g><path d="M 11.296875 -13.53125 L 14.734375 -13.53125 L 14.734375 0 L 11.296875 0 L 11.296875 -1.96875 L 10.796875 -1.96875 C 10.203125 -0.40625 8.910156 0.375 6.921875 0.375 C 6.253906 0.375 5.628906 0.265625 5.046875 0.046875 C 4.460938 -0.160156 3.953125 -0.492188 3.515625 -0.953125 C 3.078125 -1.410156 2.734375 -1.976562 2.484375 -2.65625 C 2.242188 -3.34375 2.125 -4.148438 2.125 -5.078125 L 2.125 -13.53125 L 5.5625 -13.53125 L 5.5625 -5.78125 C 5.5625 -4.820312 5.785156 -4.070312 6.234375 -3.53125 C 6.691406 -3 7.378906 -2.734375 8.296875 -2.734375 C 9.328125 -2.734375 10.082031 -3.0625 10.5625 -3.71875 C 11.050781 -4.382812 11.296875 -5.289062 11.296875 -6.4375 Z M 11.296875 -13.53125 "/></g></g></g><g fill="#000000" fill-opacity="1"><g transform="translate(164.567071, 232.902261)"><g><path d="M 11.84375 -1.96875 L 11.34375 -1.96875 C 11.195312 -1.65625 11.019531 -1.359375 10.8125 -1.078125 C 10.601562 -0.796875 10.332031 -0.546875 10 -0.328125 C 9.664062 -0.109375 9.265625 0.0625 8.796875 0.1875 C 8.335938 0.3125 7.78125 0.375 7.125 0.375 C 6.28125 0.375 5.5 0.226562 4.78125 -0.0625 C 4.0625 -0.363281 3.429688 -0.8125 2.890625 -1.40625 C 2.359375 -2 1.941406 -2.722656 1.640625 -3.578125 C 1.347656 -4.429688 1.203125 -5.410156 1.203125 -6.515625 L 1.203125 -7.015625 C 1.203125 -8.097656 1.359375 -9.066406 1.671875 -9.921875 C 1.992188 -10.785156 2.429688 -11.507812 2.984375 -12.09375 C 3.535156 -12.6875 4.179688 -13.132812 4.921875 -13.4375 C 5.660156 -13.75 6.4375 -13.90625 7.25 -13.90625 C 8.34375 -13.90625 9.207031 -13.703125 9.84375 -13.296875 C 10.476562 -12.890625 10.976562 -12.3125 11.34375 -11.5625 L 11.84375 -11.5625 L 11.84375 -19.09375 L 15.28125 -19.09375 L 15.28125 0 L 11.84375 0 Z M 8.234375 -2.890625 C 9.304688 -2.890625 10.175781 -3.226562 10.84375 -3.90625 C 11.507812 -4.59375 11.84375 -5.492188 11.84375 -6.609375 L 11.84375 -6.921875 C 11.84375 -8.035156 11.507812 -8.929688 10.84375 -9.609375 C 10.175781 -10.296875 9.304688 -10.640625 8.234375 -10.640625 C 7.160156 -10.640625 6.289062 -10.304688 5.625 -9.640625 C 4.96875 -8.972656 4.640625 -8.066406 4.640625 -6.921875 L 4.640625 -6.609375 C 4.640625 -5.460938 4.96875 -4.554688 5.625 -3.890625 C 6.289062 -3.222656 7.160156 -2.890625 8.234375 -2.890625 Z M 8.234375 -2.890625 "/></g></g></g><g fill="#000000" fill-opacity="1"><g transform="translate(181.255989, 232.902261)"><g><path d="M 11.84375 -1.96875 L 11.34375 -1.96875 C 11.195312 -1.65625 11.019531 -1.359375 10.8125 -1.078125 C 10.601562 -0.796875 10.332031 -0.546875 10 -0.328125 C 9.664062 -0.109375 9.265625 0.0625 8.796875 0.1875 C 8.335938 0.3125 7.78125 0.375 7.125 0.375 C 6.28125 0.375 5.5 0.226562 4.78125 -0.0625 C 4.0625 -0.363281 3.429688 -0.8125 2.890625 -1.40625 C 2.359375 -2 1.941406 -2.722656 1.640625 -3.578125 C 1.347656 -4.429688 1.203125 -5.410156 1.203125 -6.515625 L 1.203125 -7.015625 C 1.203125 -8.097656 1.359375 -9.066406 1.671875 -9.921875 C 1.992188 -10.785156 2.429688 -11.507812 2.984375 -12.09375 C 3.535156 -12.6875 4.179688 -13.132812 4.921875 -13.4375 C 5.660156 -13.75 6.4375 -13.90625 7.25 -13.90625 C 8.34375 -13.90625 9.207031 -13.703125 9.84375 -13.296875 C 10.476562 -12.890625 10.976562 -12.3125 11.34375 -11.5625 L 11.84375 -11.5625 L 11.84375 -19.09375 L 15.28125 -19.09375 L 15.28125 0 L 11.84375 0 Z M 8.234375 -2.890625 C 9.304688 -2.890625 10.175781 -3.226562 10.84375 -3.90625 C 11.507812 -4.59375 11.84375 -5.492188 11.84375 -6.609375 L 11.84375 -6.921875 C 11.84375 -8.035156 11.507812 -8.929688 10.84375 -9.609375 C 10.175781 -10.296875 9.304688 -10.640625 8.234375 -10.640625 C 7.160156 -10.640625 6.289062 -10.304688 5.625 -9.640625 C 4.96875 -8.972656 4.640625 -8.066406 4.640625 -6.921875 L 4.640625 -6.609375 C 4.640625 -5.460938 4.96875 -4.554688 5.625 -3.890625 C 6.289062 -3.222656 7.160156 -2.890625 8.234375 -2.890625 Z M 8.234375 -2.890625 "/></g></g></g><g fill="#000000" fill-opacity="1"><g transform="translate(197.944907, 232.902261)"><g><path d="M 11.296875 -13.53125 L 14.734375 -13.53125 L 14.734375 3.328125 C 14.734375 3.941406 14.535156 4.445312 14.140625 4.84375 C 13.753906 5.25 13.25 5.453125 12.625 5.453125 L 4.578125 5.453125 L 4.578125 2.1875 L 10.5625 2.1875 C 11.050781 2.1875 11.296875 1.910156 11.296875 1.359375 L 11.296875 -1.96875 L 10.796875 -1.96875 C 10.203125 -0.40625 8.910156 0.375 6.921875 0.375 C 6.253906 0.375 5.628906 0.265625 5.046875 0.046875 C 4.460938 -0.160156 3.953125 -0.492188 3.515625 -0.953125 C 3.078125 -1.410156 2.734375 -1.976562 2.484375 -2.65625 C 2.242188 -3.34375 2.125 -4.148438 2.125 -5.078125 L 2.125 -13.53125 L 5.5625 -13.53125 L 5.5625 -5.78125 C 5.5625 -4.820312 5.785156 -4.070312 6.234375 -3.53125 C 6.691406 -3 7.378906 -2.734375 8.296875 -2.734375 C 9.328125 -2.734375 10.082031 -3.0625 10.5625 -3.71875 C 11.050781 -4.382812 11.296875 -5.289062 11.296875 -6.4375 Z M 11.296875 -13.53125 "/></g></g></g><g clip-path="url(#117c1fc6f8)"><path fill="#000000" d="M 245.035156 119.878906 L 257.40625 119.878906 C 258.546875 119.878906 259.46875 120.78125 259.46875 121.898438 L 259.46875 248.664062 C 259.46875 249.777344 258.546875 250.683594 257.40625 250.683594 L 245.035156 250.683594 C 243.894531 250.683594 242.972656 249.777344 242.972656 248.664062 C 242.972656 247.546875 243.894531 246.644531 245.035156 246.644531 L 255.34375 246.644531 L 255.34375 123.917969 L 245.035156 123.917969 C 243.894531 123.917969 242.972656 123.011719 242.972656 121.898438 C 242.972656 120.78125 243.894531 119.878906 245.035156 119.878906 " fill-opacity="1" fill-rule="nonzero"/></g></svg>